<svg width="20" height="20" viewBox="0 0 20 20" fill="none" xmlns="http://www.w3.org/2000/svg">
<path d="M10.8346 18.3337H4.16797C2.5013 18.3337 1.66797 17.5003 1.66797 15.8337V9.16699C1.66797 7.50033 2.5013 6.66699 4.16797 6.66699H8.33464V15.8337C8.33464 17.5003 9.16797 18.3337 10.8346 18.3337Z" stroke="#000C16" stroke-miterlimit="10" stroke-linecap="round" stroke-linejoin="round"/>
<path d="M8.42629 3.33301C8.35962 3.58301 8.33464 3.85801 8.33464 4.16634V6.66634H4.16797V4.99967C4.16797 4.08301 4.91797 3.33301 5.83464 3.33301H8.42629Z" stroke="#000C16" stroke-miterlimit="10" stroke-linecap="round" stroke-linejoin="round"/>
<path d="M11.668 6.66699V10.8337" stroke="#000C16" stroke-miterlimit="10" stroke-linecap="round" stroke-linejoin="round"/>
<path d="M15 6.66699V10.8337" stroke="#000C16" stroke-miterlimit="10" stroke-linecap="round" stroke-linejoin="round"/>
<path d="M14.168 14.167H12.5013C12.043 14.167 11.668 14.542 11.668 15.0003V18.3337H15.0013V15.0003C15.0013 14.542 14.6263 14.167 14.168 14.167Z" stroke="#000C16" stroke-miterlimit="10" stroke-linecap="round" stroke-linejoin="round"/>
<path d="M5 10.833V14.1663" stroke="#000C16" stroke-miterlimit="10" stroke-linecap="round" stroke-linejoin="round"/>
<path d="M8.33203 15.8337V4.16699C8.33203 2.50033 9.16536 1.66699 10.832 1.66699H15.832C17.4987 1.66699 18.332 2.50033 18.332 4.16699V15.8337C18.332 17.5003 17.4987 18.3337 15.832 18.3337H10.832C9.16536 18.3337 8.33203 17.5003 8.33203 15.8337Z" stroke="#000C16" stroke-miterlimit="10" stroke-linecap="round" stroke-linejoin="round"/>
</svg>
