<svg width="44" height="44" viewBox="0 0 44 44" fill="none" xmlns="http://www.w3.org/2000/svg">
<path d="M40.2777 33.6048C40.2777 34.2648 40.131 34.9432 39.8193 35.6032C39.5077 36.2632 39.1043 36.8865 38.5727 37.4732C37.6743 38.4632 36.6843 39.1782 35.566 39.6365C34.466 40.0948 33.2743 40.3332 31.991 40.3332C30.121 40.3332 28.1227 39.8932 26.0143 38.9948C23.906 38.0965 21.7977 36.8865 19.7077 35.3648C17.5993 33.8248 15.601 32.1198 13.6943 30.2315C11.806 28.3248 10.101 26.3265 8.57935 24.2365C7.07602 22.1465 5.86602 20.0565 4.98602 17.9848C4.10602 15.8948 3.66602 13.8965 3.66602 11.9898C3.66602 10.7432 3.88602 9.5515 4.32602 8.4515C4.76602 7.33317 5.46268 6.3065 6.43435 5.38984C7.60768 4.23484 8.89102 3.6665 10.2477 3.6665C10.761 3.6665 11.2743 3.7765 11.7327 3.9965C12.2093 4.2165 12.631 4.5465 12.961 5.02317L17.2143 11.0182C17.5443 11.4765 17.7827 11.8982 17.9477 12.3015C18.1127 12.6865 18.2043 13.0715 18.2043 13.4198C18.2043 13.8598 18.076 14.2998 17.8193 14.7215C17.581 15.1432 17.2327 15.5832 16.7927 16.0232L15.3993 17.4715C15.1977 17.6732 15.106 17.9115 15.106 18.2048C15.106 18.3515 15.1243 18.4798 15.161 18.6265C15.216 18.7732 15.271 18.8832 15.3077 18.9932C15.6377 19.5982 16.206 20.3865 17.0127 21.3398C17.8377 22.2932 18.7177 23.2648 19.671 24.2365C20.661 25.2082 21.6143 26.1065 22.586 26.9315C23.5393 27.7382 24.3277 28.2882 24.951 28.6182C25.0427 28.6548 25.1527 28.7098 25.281 28.7648C25.4277 28.8198 25.5743 28.8382 25.7393 28.8382C26.051 28.8382 26.2893 28.7282 26.491 28.5265L27.8843 27.1515C28.3427 26.6932 28.7827 26.3448 29.2043 26.1248C29.626 25.8682 30.0477 25.7398 30.506 25.7398C30.8543 25.7398 31.221 25.8132 31.6243 25.9782C32.0277 26.1432 32.4493 26.3815 32.9077 26.6932L38.976 31.0015C39.4527 31.3315 39.7827 31.7165 39.9843 32.1748C40.1677 32.6332 40.2777 33.0915 40.2777 33.6048Z" stroke="#000C16" stroke-miterlimit="10"/>
<path d="M33.9167 16.4997C33.9167 15.3997 33.055 13.713 31.7717 12.338C30.5983 11.073 29.04 10.083 27.5 10.083" stroke="#000C16" stroke-linecap="round" stroke-linejoin="round"/>
<path d="M40.3333 16.4998C40.3333 9.40484 34.595 3.6665 27.5 3.6665" stroke="#000C16" stroke-linecap="round" stroke-linejoin="round"/>
</svg>
