<svg width="45" height="45" viewBox="0 0 45 45" fill="none" xmlns="http://www.w3.org/2000/svg">
<path d="M40.7777 34.5769C40.7777 35.2369 40.631 35.9152 40.3193 36.5752C40.0077 37.2352 39.6043 37.8585 39.0727 38.4452C38.1743 39.4352 37.1843 40.1502 36.066 40.6085C34.966 41.0669 33.7743 41.3052 32.491 41.3052C30.621 41.3052 28.6227 40.8652 26.5143 39.9669C24.406 39.0685 22.2977 37.8586 20.2077 36.3369C18.0993 34.7969 16.101 33.0919 14.1943 31.2035C12.306 29.2969 10.601 27.2985 9.07935 25.2085C7.57602 23.1185 6.36602 21.0285 5.48602 18.9569C4.60602 16.8669 4.16602 14.8685 4.16602 12.9619C4.16602 11.7152 4.38602 10.5235 4.82602 9.42355C5.26602 8.30522 5.96268 7.27855 6.93435 6.36188C8.10768 5.20688 9.39102 4.63855 10.7477 4.63855C11.261 4.63855 11.7743 4.74855 12.2327 4.96855C12.7093 5.18855 13.131 5.51855 13.461 5.99522L17.7143 11.9902C18.0443 12.4485 18.2827 12.8702 18.4477 13.2735C18.6127 13.6585 18.7043 14.0435 18.7043 14.3919C18.7043 14.8319 18.576 15.2719 18.3193 15.6935C18.081 16.1152 17.7327 16.5552 17.2927 16.9952L15.8993 18.4435C15.6977 18.6452 15.606 18.8835 15.606 19.1769C15.606 19.3235 15.6243 19.4519 15.661 19.5985C15.716 19.7452 15.771 19.8552 15.8077 19.9652C16.1377 20.5702 16.706 21.3585 17.5127 22.3119C18.3377 23.2652 19.2177 24.2369 20.171 25.2085C21.161 26.1802 22.1143 27.0785 23.086 27.9035C24.0393 28.7102 24.8277 29.2602 25.451 29.5902C25.5427 29.6269 25.6527 29.6819 25.781 29.7369C25.9277 29.7919 26.0743 29.8102 26.2393 29.8102C26.551 29.8102 26.7893 29.7002 26.991 29.4985L28.3843 28.1235C28.8427 27.6652 29.2827 27.3169 29.7043 27.0969C30.126 26.8402 30.5477 26.7119 31.006 26.7119C31.3543 26.7119 31.721 26.7852 32.1243 26.9502C32.5277 27.1152 32.9493 27.3535 33.4077 27.6652L39.476 31.9735C39.9527 32.3035 40.2827 32.6885 40.4843 33.1469C40.6677 33.6052 40.7777 34.0635 40.7777 34.5769Z" stroke="#F6A801" stroke-miterlimit="10"/>
<path d="M34.4167 17.4718C34.4167 16.3718 33.555 14.6852 32.2717 13.3102C31.0983 12.0452 29.54 11.0552 28 11.0552" stroke="#F6A801" stroke-linecap="round" stroke-linejoin="round"/>
<path d="M40.8333 17.4719C40.8333 10.3769 35.095 4.63855 28 4.63855" stroke="#F6A801" stroke-linecap="round" stroke-linejoin="round"/>
</svg>
