<svg width="40" height="40" viewBox="0 0 40 40" fill="none" xmlns="http://www.w3.org/2000/svg">
<path d="M10.4527 27.8908C11.0375 27.8908 11.5319 27.6863 11.936 27.2772C12.3413 26.8668 12.544 26.3693 12.544 25.7845C12.544 25.1984 12.3388 24.7027 11.9285 24.2974C11.5181 23.8946 11.0205 23.6932 10.4358 23.6932C9.84973 23.6932 9.35404 23.8977 8.94871 24.3068C8.54588 24.7172 8.34447 25.2154 8.34447 25.8014C8.34447 26.3862 8.54902 26.8806 8.95812 27.2847C9.36847 27.6888 9.86792 27.8908 10.4527 27.8908ZM27.6838 27.8908C28.2686 27.8908 28.763 27.6863 29.1671 27.2772C29.5711 26.8668 29.7732 26.3693 29.7732 25.7845C29.7732 25.1984 29.5686 24.7027 29.1595 24.2974C28.7492 23.8946 28.2516 23.6932 27.6668 23.6932C27.0808 23.6932 26.5851 23.8977 26.1798 24.3068C25.7769 24.7172 25.5755 25.2154 25.5755 25.8014C25.5755 26.3862 25.7801 26.8806 26.1892 27.2847C26.5995 27.6888 27.0977 27.8908 27.6838 27.8908ZM4.94118 36C4.67388 36 4.45051 35.9096 4.27106 35.7289C4.09161 35.5482 4.00125 35.3249 4 35.0588V21.7449C4 21.5743 4.01004 21.403 4.03012 21.2311C4.04894 21.0591 4.08973 20.891 4.15247 20.7266L7.73647 10.5882C7.82808 10.2896 8.00439 10.0574 8.26541 9.89177C8.52769 9.72863 8.81945 9.64706 9.14071 9.64706H20.1449C20.4122 9.64706 20.6356 9.73741 20.8151 9.91812C20.9945 10.0988 21.0849 10.3228 21.0861 10.5901C21.0874 10.8574 20.997 11.0808 20.8151 11.2602C20.6331 11.4397 20.4097 11.5294 20.1449 11.5294H9.43812L6.66541 19.3487H20.1449C20.4122 19.3487 20.6356 19.4391 20.8151 19.6198C20.9945 19.8005 21.0849 20.0245 21.0861 20.2918C21.0874 20.5591 20.997 20.7824 20.8151 20.9619C20.6331 21.1413 20.4097 21.2311 20.1449 21.2311H5.88235V30.3529H32.2353V22.1722C32.2353 21.9049 32.3256 21.6816 32.5064 21.5021C32.6871 21.3227 32.9111 21.2323 33.1784 21.2311C33.4456 21.2298 33.669 21.3202 33.8485 21.5021C34.0279 21.6841 34.1176 21.9075 34.1176 22.1722V35.0588C34.1176 35.3261 34.0273 35.5495 33.8466 35.7289C33.6659 35.9084 33.4425 35.9987 33.1765 36H32.7435C32.4762 36 32.2522 35.9096 32.0715 35.7289C31.8908 35.5482 31.8005 35.3249 31.8005 35.0588V32.2353H6.31718V35.0588C6.31718 35.3261 6.22682 35.5495 6.04612 35.7289C5.86541 35.9084 5.64204 35.9987 5.376 36H4.94118ZM27.2471 17.7562C26.8078 17.7562 26.4188 17.5868 26.08 17.248C25.7412 16.9092 25.573 16.5208 25.5755 16.0828V10.8856C25.5755 10.4464 25.7443 10.0574 26.0819 9.71859C26.4195 9.37977 26.8078 9.21098 27.2471 9.21224H27.4918V7.32988C27.4918 6.39122 27.8124 5.60188 28.4536 4.96188C29.0949 4.32063 29.8849 4 30.8235 4C31.7622 4 32.5522 4.32 33.1934 4.96C33.8347 5.6 34.1547 6.39059 34.1534 7.33176V9.21412H34.4C34.8392 9.21412 35.2157 9.3829 35.5294 9.72047C35.8431 10.058 36 10.4464 36 10.8856V16.0828C36 16.522 35.8306 16.9111 35.4918 17.2499C35.1529 17.5887 34.7652 17.7575 34.3285 17.7562H27.2471ZM28.9412 9.21224H32.7059V7.32988C32.7059 6.79655 32.5252 6.3498 32.1638 5.98965C31.8024 5.62949 31.3556 5.44878 30.8235 5.44753C30.2915 5.44627 29.8447 5.62698 29.4833 5.98965C29.1219 6.35231 28.9412 6.79906 28.9412 7.32988V9.21224Z" fill="#000C16"/>
</svg>
