<svg width="100" height="100" viewBox="0 0 100 100" fill="none" xmlns="http://www.w3.org/2000/svg">
<path d="M44.1114 50.2447C44.1114 50.729 43.9221 51.1935 43.5853 51.5359C43.2484 51.8784 42.7915 52.0708 42.3151 52.0708H20.7594C20.283 52.0708 19.8261 51.8784 19.4892 51.5359C19.1523 51.1935 18.9631 50.729 18.9631 50.2447C18.9631 49.7605 19.1523 49.296 19.4892 48.9535C19.8261 48.6111 20.283 48.4187 20.7594 48.4187H42.3151C42.7915 48.4187 43.2484 48.6111 43.5853 48.9535C43.9221 49.296 44.1114 49.7605 44.1114 50.2447ZM42.3151 33.8105H20.7594C20.283 33.8105 19.8261 34.0029 19.4892 34.3453C19.1523 34.6878 18.9631 35.1522 18.9631 35.6365C18.9631 36.1208 19.1523 36.5853 19.4892 36.9277C19.8261 37.2702 20.283 37.4625 20.7594 37.4625H42.3151C42.7915 37.4625 43.2484 37.2702 43.5853 36.9277C43.9221 36.5853 44.1114 36.1208 44.1114 35.6365C44.1114 35.1522 43.9221 34.6878 43.5853 34.3453C43.2484 34.0029 42.7915 33.8105 42.3151 33.8105ZM90.8154 61.0822V90.4174C90.8159 90.7381 90.7332 91.0534 90.5758 91.3313C90.4183 91.6093 90.1916 91.8402 89.9184 92.0008C89.6453 92.1614 89.3353 92.246 89.0198 92.2461C88.7042 92.2462 88.3942 92.1618 88.121 92.0014L76.445 85.2178L64.7689 92.0014C64.4957 92.1618 64.1857 92.2462 63.8701 92.2461C63.5546 92.246 63.2446 92.1614 62.9715 92.0008C62.6983 91.8402 62.4716 91.6093 62.3142 91.3313C62.1567 91.0534 62.074 90.7381 62.0745 90.4174V77.6352H6.38893C4.95969 77.6352 3.589 77.058 2.57838 76.0307C1.56776 75.0033 1 73.61 1 72.1571V13.7242C1 12.2713 1.56776 10.8779 2.57838 9.85059C3.589 8.82325 4.95969 8.24609 6.38893 8.24609H85.4265C86.8557 8.24609 88.2264 8.82325 89.237 9.85059C90.2477 10.8779 90.8154 12.2713 90.8154 13.7242V28.4511C93.0755 30.5031 94.8838 33.0172 96.1219 35.8288C97.36 38.6405 98 41.6862 98 44.7667C98 47.8471 97.36 50.8929 96.1219 53.7045C94.8838 56.5161 93.0755 59.0302 90.8154 61.0822ZM76.445 26.5064C72.8922 26.5064 69.4192 27.5773 66.4652 29.5838C63.5112 31.5903 61.2088 34.4421 59.8492 37.7788C58.4896 41.1154 58.1339 44.7869 58.827 48.3291C59.5201 51.8712 61.231 55.1249 63.7431 57.6786C66.2553 60.2324 69.456 61.9715 72.9405 62.6761C76.425 63.3807 80.0368 63.019 83.3191 61.637C86.6015 60.2549 89.4069 57.9144 91.3807 54.9115C93.3545 51.9086 94.408 48.3782 94.408 44.7667C94.408 39.9237 92.5155 35.2792 89.1468 31.8547C85.778 28.4302 81.2091 26.5064 76.445 26.5064ZM62.0745 73.9831V61.0822C58.1345 57.4585 55.6499 52.4832 55.0975 47.1113C54.5452 41.7394 55.964 36.3494 59.0817 31.9758C62.1994 27.6022 66.7963 24.5532 71.99 23.414C77.1838 22.2748 82.6084 23.1257 87.2228 25.8034V13.7242C87.2228 13.2399 87.0336 12.7754 86.6967 12.433C86.3598 12.0905 85.9029 11.8982 85.4265 11.8982H6.38893C5.91251 11.8982 5.45562 12.0905 5.11874 12.433C4.78187 12.7754 4.59262 13.2399 4.59262 13.7242V72.1571C4.59262 72.6414 4.78187 73.1058 5.11874 73.4483C5.45562 73.7907 5.91251 73.9831 6.38893 73.9831H62.0745ZM87.2228 63.73C83.9488 65.6617 80.2305 66.6791 76.445 66.6791C72.6594 66.6791 68.9411 65.6617 65.6671 63.73V87.272L75.5468 81.5292C75.8199 81.3689 76.1296 81.2845 76.445 81.2845C76.7603 81.2845 77.07 81.3689 77.3431 81.5292L87.2228 87.272V63.73Z" fill="#000C16"/>
</svg>
