<svg width="100" height="100" viewBox="0 0 100 100" fill="none" xmlns="http://www.w3.org/2000/svg">
<path d="M44.1114 50.2452C44.1114 50.7295 43.9221 51.194 43.5853 51.5364C43.2484 51.8789 42.7915 52.0713 42.3151 52.0713H20.7594C20.283 52.0713 19.8261 51.8789 19.4892 51.5364C19.1523 51.194 18.9631 50.7295 18.9631 50.2452C18.9631 49.7609 19.1523 49.2965 19.4892 48.954C19.8261 48.6116 20.283 48.4192 20.7594 48.4192H42.3151C42.7915 48.4192 43.2484 48.6116 43.5853 48.954C43.9221 49.2965 44.1114 49.7609 44.1114 50.2452ZM42.3151 33.811H20.7594C20.283 33.811 19.8261 34.0034 19.4892 34.3458C19.1523 34.6883 18.9631 35.1527 18.9631 35.637C18.9631 36.1213 19.1523 36.5858 19.4892 36.9282C19.8261 37.2707 20.283 37.463 20.7594 37.463H42.3151C42.7915 37.463 43.2484 37.2707 43.5853 36.9282C43.9221 36.5858 44.1114 36.1213 44.1114 35.637C44.1114 35.1527 43.9221 34.6883 43.5853 34.3458C43.2484 34.0034 42.7915 33.811 42.3151 33.811ZM90.8154 61.0827V90.4179C90.8159 90.7386 90.7332 91.0539 90.5758 91.3318C90.4183 91.6098 90.1916 91.8407 89.9184 92.0013C89.6453 92.1618 89.3353 92.2465 89.0198 92.2466C88.7042 92.2467 88.3942 92.1623 88.121 92.0019L76.445 85.2182L64.7689 92.0019C64.4957 92.1623 64.1857 92.2467 63.8701 92.2466C63.5546 92.2465 63.2446 92.1618 62.9715 92.0013C62.6983 91.8407 62.4716 91.6098 62.3142 91.3318C62.1567 91.0539 62.074 90.7386 62.0745 90.4179V77.6357H6.38893C4.95969 77.6357 3.589 77.0585 2.57838 76.0312C1.56776 75.0038 1 73.6105 1 72.1576V13.7247C1 12.2718 1.56776 10.8784 2.57838 9.85108C3.589 8.82374 4.95969 8.24658 6.38893 8.24658H85.4265C86.8557 8.24658 88.2264 8.82374 89.237 9.85108C90.2477 10.8784 90.8154 12.2718 90.8154 13.7247V28.4516C93.0755 30.5036 94.8838 33.0177 96.1219 35.8293C97.36 38.641 98 41.6867 98 44.7672C98 47.8476 97.36 50.8933 96.1219 53.705C94.8838 56.5166 93.0755 59.0307 90.8154 61.0827ZM76.445 26.5069C72.8922 26.5069 69.4192 27.5778 66.4652 29.5843C63.5112 31.5907 61.2088 34.4426 59.8492 37.7792C58.4896 41.1159 58.1339 44.7874 58.827 48.3296C59.5201 51.8717 61.231 55.1254 63.7431 57.6791C66.2553 60.2329 69.456 61.972 72.9405 62.6766C76.425 63.3811 80.0368 63.0195 83.3191 61.6375C86.6015 60.2554 89.4069 57.9149 91.3807 54.912C93.3545 51.9091 94.408 48.3787 94.408 44.7672C94.408 39.9242 92.5155 35.2796 89.1468 31.8552C85.778 28.4307 81.2091 26.5069 76.445 26.5069ZM62.0745 73.9836V61.0827C58.1345 57.459 55.6499 52.4837 55.0975 47.1118C54.5452 41.7399 55.964 36.3499 59.0817 31.9763C62.1994 27.6027 66.7963 24.5537 71.99 23.4145C77.1838 22.2753 82.6084 23.1262 87.2228 25.8038V13.7247C87.2228 13.2404 87.0336 12.7759 86.6967 12.4335C86.3598 12.091 85.9029 11.8986 85.4265 11.8986H6.38893C5.91251 11.8986 5.45562 12.091 5.11874 12.4335C4.78187 12.7759 4.59262 13.2404 4.59262 13.7247V72.1576C4.59262 72.6419 4.78187 73.1063 5.11874 73.4488C5.45562 73.7912 5.91251 73.9836 6.38893 73.9836H62.0745ZM87.2228 63.7304C83.9488 65.6622 80.2305 66.6796 76.445 66.6796C72.6594 66.6796 68.9411 65.6622 65.6671 63.7304V87.2725L75.5468 81.5297C75.8199 81.3694 76.1296 81.285 76.445 81.285C76.7603 81.285 77.07 81.3694 77.3431 81.5297L87.2228 87.2725V63.7304Z" fill="#F6A801"/>
</svg>
