<svg width="40" height="40" viewBox="0 0 40 40" fill="none" xmlns="http://www.w3.org/2000/svg">
<path d="M31.9996 29.6H29.8828C29.358 29.6 29.0956 29.6 28.8924 29.4624C28.6892 29.3248 28.5916 29.0816 28.3964 28.5936L27.6012 26.6064C27.4076 26.1184 27.31 25.8752 27.1052 25.7376C26.9036 25.6 26.6412 25.6 26.1164 25.6H22.3996C21.646 25.6 21.2684 25.6 21.0332 25.3664C20.7996 25.1312 20.7996 24.7536 20.7996 24V17.6M20.7996 17.6V13.6M20.7996 17.6H27.022M20.7996 10.4C19.9509 10.4 19.137 10.0629 18.5369 9.46274C17.9368 8.86262 17.5996 8.04869 17.5996 7.2C17.5996 6.35131 17.9368 5.53737 18.5369 4.93726C19.137 4.33714 19.9509 4 20.7996 4C21.6483 4 22.4622 4.33714 23.0623 4.93726C23.6625 5.53737 23.9996 6.35131 23.9996 7.2C23.9996 8.04869 23.6625 8.86262 23.0623 9.46274C22.4622 10.0629 21.6483 10.4 20.7996 10.4Z" stroke="#000C16" stroke-linecap="round" stroke-linejoin="round"/>
<path d="M16.0928 16.7998C11.5008 17.5678 8 21.5422 8 26.3326C8 31.6718 12.3472 35.9998 17.712 35.9998C19.2519 36.002 20.7703 35.6379 22.1418 34.9377C23.5133 34.2375 24.6986 33.2211 25.6 31.9726" stroke="#000C16" stroke-linecap="round" stroke-linejoin="round"/>
</svg>
