<svg width="40" height="40" viewBox="0 0 40 40" fill="none" xmlns="http://www.w3.org/2000/svg">
<path d="M30.3997 32.7998C31.2484 32.7998 32.0623 32.4627 32.6624 31.8626C33.2625 31.2625 33.5996 30.4485 33.5996 29.5999V10.4001C33.5996 9.55145 33.2625 8.73753 32.6624 8.13742C32.0623 7.53732 31.2484 7.20018 30.3997 7.20018M8 11.7569V28.2431C8 30.7919 8 32.067 8.74399 32.9566C9.48638 33.8446 10.744 34.0734 13.2559 34.5294L18.0559 35.3998C21.5518 36.035 23.3006 36.3518 24.4494 35.395C25.5998 34.4366 25.5998 32.6622 25.5998 29.1151V10.8849C25.5998 7.33778 25.5998 5.5634 24.4494 4.60502C23.3006 3.64823 21.5534 3.96503 18.0543 4.60022L13.2543 5.4706C10.7424 5.9266 9.48638 6.15539 8.74239 7.04338C8 7.93297 8 9.20815 8 11.7569Z" stroke="#000C16" stroke-linecap="round" stroke-linejoin="round"/>
<path d="M20 19.9971V19.9805" stroke="#000C16" stroke-width="2" stroke-linecap="round" stroke-linejoin="round"/>
</svg>
