<svg width="20" height="20" viewBox="0 0 20 20" fill="none" xmlns="http://www.w3.org/2000/svg">
<path d="M14.9987 16.6671C15.4407 16.6671 15.8646 16.4915 16.1772 16.179C16.4898 15.8664 16.6654 15.4425 16.6654 15.0004V5.00044C16.6654 4.55842 16.4898 4.13449 16.1772 3.82193C15.8646 3.50937 15.4407 3.33378 14.9987 3.33378M3.33203 5.70711V14.2938C3.33203 15.6213 3.33203 16.2854 3.71953 16.7488C4.1062 17.2113 4.7612 17.3304 6.06953 17.5679L8.56953 18.0213C10.3904 18.3521 11.3012 18.5171 11.8995 18.0188C12.4987 17.5196 12.4987 16.5954 12.4987 14.7479V5.25294C12.4987 3.40544 12.4987 2.48128 11.8995 1.98211C11.3012 1.48378 10.3912 1.64878 8.5687 1.97961L6.0687 2.43294C4.76036 2.67044 4.1062 2.78961 3.7187 3.25211C3.33203 3.71544 3.33203 4.37961 3.33203 5.70711Z" stroke="#000C16" stroke-linecap="round" stroke-linejoin="round"/>
<path d="M9.58203 9.99857V9.99023" stroke="#000C16" stroke-width="2" stroke-linecap="round" stroke-linejoin="round"/>
</svg>
