<svg width="40" height="40" viewBox="0 0 40 40" fill="none" xmlns="http://www.w3.org/2000/svg">
<path d="M27.6471 20H24.5882M29.4655 4.38324C31.1502 4.5501 32.4035 5.79276 32.5626 7.47276C32.7759 9.71352 33 13.5947 33 20C33 26.4053 32.7759 30.2857 32.5626 32.5272C32.4035 34.2072 31.1502 35.4499 29.4655 35.6168C27.5369 35.808 24.4842 36 20 36C15.5158 36 12.4631 35.808 10.5345 35.6168C8.84982 35.4499 7.59647 34.2072 7.43741 32.5272C7.22406 30.2865 7 26.4053 7 20C7 13.5947 7.22406 9.71429 7.43741 7.47276C7.59647 5.79276 8.84982 4.5501 10.5345 4.38324C12.4631 4.192 15.5158 4 20 4C24.4842 4 27.5369 4.192 29.4655 4.38324Z" stroke="#000C16" stroke-linecap="round" stroke-linejoin="round"/>
</svg>
