<svg width="40" height="40" viewBox="0 0 40 40" fill="none" xmlns="http://www.w3.org/2000/svg">
<path d="M37 36H3M4.7 36V18.0446C4.70007 17.3306 4.85266 16.6247 5.14773 15.9734C5.44279 15.3221 5.87363 14.7401 6.4119 14.2657M35.3 36V25.8871M11.9301 9.40313L16.6119 5.27707C17.5454 4.45441 18.751 4 20 4C21.249 4 22.4546 4.45441 23.3881 5.27707L33.5881 14.2657C34.1264 14.7401 34.5572 15.3221 34.8523 15.9734C35.1473 16.6247 35.2999 17.3306 35.3 18.0446V19.1452M14.9 30.1008H25.1M9.8 36V30.9436M30.2 36V25.8871C30.2 22.7083 30.2 21.1206 29.2038 20.1329C28.2076 19.1452 26.6062 19.1452 23.4 19.1452H16.6C13.3938 19.1452 11.7924 19.1452 10.7962 20.1329C9.9938 20.9268 9.8374 22.1116 9.8068 24.2016M16.6 14.0888H17.45M23.4 14.0888H20.85M14.9 25.0444H17.45M25.1 25.0444H20.85" stroke="#000C16" stroke-linecap="round"/>
</svg>
