<svg width="40" height="40" viewBox="0 0 40 40" fill="none" xmlns="http://www.w3.org/2000/svg">
<path d="M4.9838 27.6627C4.70384 27.6627 4.46988 27.568 4.28193 27.3787C4.09398 27.1893 4 26.9553 4 26.6765V13.3235C4 13.0447 4.09463 12.8106 4.2839 12.6213C4.47317 12.432 4.70712 12.3379 4.98577 12.3392C5.26441 12.3406 5.49837 12.4346 5.68764 12.6213C5.8769 12.808 5.97154 13.0427 5.97154 13.3254V26.6765C5.97154 26.9553 5.8769 27.1893 5.68764 27.3787C5.49837 27.568 5.26375 27.6627 4.9838 27.6627ZM10.577 31C10.1328 31 9.75951 30.8468 9.45721 30.5404C9.15491 30.2327 9.00376 29.8527 9.00376 29.4004V14.9941C9.00376 13.3294 9.59062 11.9139 10.7643 10.7475C11.9367 9.58251 13.3471 9 14.9953 9H25.0047C26.6674 9 28.0817 9.58251 29.2475 10.7475C30.412 11.9139 30.9943 13.3287 30.9943 14.9921V29.4004C30.9943 29.8527 30.8431 30.2327 30.5408 30.5404C30.2385 30.8481 29.8652 31.0013 29.421 31H10.577ZM35.0123 27.6607C34.7323 27.6607 34.4984 27.5667 34.3104 27.3787C34.1224 27.1907 34.0278 26.9566 34.0265 26.6765V13.3235C34.0265 13.0447 34.1211 12.8106 34.3104 12.6213C34.4997 12.4333 34.7343 12.3392 35.0142 12.3392C35.2942 12.3392 35.5281 12.4333 35.7161 12.6213C35.9041 12.8093 35.9987 13.044 36 13.3254V26.6765C36 26.9553 35.9054 27.1893 35.7161 27.3787C35.5268 27.568 35.2922 27.6607 35.0123 27.6607ZM10.9753 29.0276H19.0132V20.9862H16.6632C16.3832 20.9862 16.1493 20.8915 15.9613 20.7022C15.7734 20.5128 15.6787 20.2781 15.6774 19.998C15.6761 19.7179 15.7707 19.4839 15.9613 19.2959C16.1519 19.1078 16.3858 19.0138 16.6632 19.0138H19.0132V10.9724H14.9933C13.8892 10.9724 12.9429 11.3662 12.1543 12.1538C11.3683 12.9415 10.9753 13.8882 10.9753 14.9941V29.0276ZM20.9848 29.0276H29.0227V14.9921C29.0227 13.8876 28.6291 12.9408 27.8418 12.1519C27.0545 11.3655 26.1081 10.9724 25.0028 10.9724H20.9848V19.0138H23.3349C23.6148 19.0138 23.8488 19.1085 24.0367 19.2978C24.2247 19.4872 24.3193 19.7219 24.3206 20.002C24.3219 20.282 24.2273 20.5161 24.0367 20.7041C23.8461 20.8922 23.6122 20.9862 23.3349 20.9862H20.9848V29.0276Z" fill="#000C16"/>
</svg>
