<svg width="40" height="40" viewBox="0 0 40 40" fill="none" xmlns="http://www.w3.org/2000/svg">
<path d="M32.4627 24.6802C29.1673 27.9609 24.4482 28.9691 20.305 27.6728L12.7705 35.1944C12.2266 35.7545 11.1548 36.0906 10.3869 35.9785L6.89958 35.4984C5.7478 35.3384 4.67601 34.2502 4.50004 33.0979L4.02014 29.6092C3.90816 28.8411 4.27609 27.7689 4.80399 27.2247L12.3225 19.7032C11.0428 15.5424 12.0346 10.8214 15.33 7.54072C20.0491 2.81976 27.7116 2.81976 32.4467 7.54072C37.1818 12.2617 37.1818 19.9593 32.4627 24.6802Z" stroke="#000C16" stroke-miterlimit="10" stroke-linecap="round" stroke-linejoin="round"/>
<path d="M9.66406 29.1504L13.4974 32.9837" stroke="#000C16" stroke-miterlimit="10" stroke-linecap="round" stroke-linejoin="round"/>
<path d="M24.168 18.333C25.5487 18.333 26.668 17.2137 26.668 15.833C26.668 14.4523 25.5487 13.333 24.168 13.333C22.7873 13.333 21.668 14.4523 21.668 15.833C21.668 17.2137 22.7873 18.333 24.168 18.333Z" stroke="#000C16" stroke-linecap="round" stroke-linejoin="round"/>
</svg>
