<svg width="203" height="28" viewBox="0 0 203 28" fill="none" xmlns="http://www.w3.org/2000/svg">
<path d="M186.178 26.6105V1.12769H189.303V12.2101H199.609V1.12769H202.734V26.6105H199.609V15.5109H189.303V26.6105H186.178Z" fill="#FCFCFC"/>
<path d="M168.983 4.42848V1.12769H185.012V4.42848H178.567V26.6105H175.456V4.42848H168.983Z" fill="#FCFCFC"/>
<path d="M167.801 1.12769V26.6105H164.676V1.12769H167.801Z" fill="#FCFCFC"/>
<path d="M141.396 1.12769H145.201L151.785 20.9324H152.021L158.618 1.12769H162.48V26.6105H159.424V8.17393H159.229L153.104 26.5763H150.632L144.576 8.15683H144.382V26.6105H141.396V1.12769Z" fill="#FCFCFC"/>
<path d="M132.353 27.0209C130.806 27.0209 129.464 26.7245 128.325 26.1316C127.195 25.5273 126.311 24.6665 125.672 23.5491C125.033 22.4318 124.677 21.1035 124.603 19.5642H127.742C127.806 20.4878 128.047 21.2574 128.464 21.8731C128.89 22.4774 129.441 22.9277 130.117 23.2242C130.793 23.5206 131.533 23.6688 132.339 23.6688C133.219 23.6688 134.006 23.4978 134.7 23.1558C135.395 22.8137 135.936 22.3348 136.325 21.7192C136.723 21.0921 136.922 20.3624 136.922 19.53C136.922 18.7775 136.746 18.1618 136.395 17.683C136.052 17.2041 135.584 16.8107 134.992 16.5029C134.399 16.1836 133.732 15.9043 132.992 15.6649L130.561 14.8439C128.894 14.2967 127.579 13.4814 126.616 12.3983C125.654 11.3037 125.172 9.8728 125.172 8.10553C125.172 6.63471 125.491 5.35202 126.13 4.25746C126.779 3.1629 127.654 2.31347 128.755 1.70918C129.867 1.09349 131.112 0.785645 132.492 0.785645C133.899 0.785645 135.135 1.09349 136.2 1.70918C137.274 2.31347 138.122 3.1458 138.742 4.20615C139.372 5.25511 139.7 6.45799 139.728 7.81479H136.7C136.589 6.64042 136.145 5.72828 135.367 5.07838C134.598 4.42849 133.617 4.10354 132.422 4.10354C131.589 4.10354 130.857 4.26886 130.228 4.59951C129.607 4.91876 129.126 5.36343 128.783 5.93351C128.45 6.50359 128.283 7.15919 128.283 7.9003C128.283 8.69842 128.482 9.34832 128.88 9.84999C129.288 10.3517 129.779 10.7507 130.353 11.0472C130.936 11.3322 131.496 11.5659 132.033 11.7484L134.047 12.4154C134.705 12.6206 135.381 12.8942 136.075 13.2363C136.77 13.5783 137.413 14.0287 138.006 14.5874C138.608 15.1347 139.089 15.8188 139.45 16.6397C139.821 17.4492 140.006 18.4298 140.006 19.5813C140.006 21.0066 139.705 22.2835 139.103 23.4123C138.501 24.5297 137.631 25.4133 136.492 26.0632C135.353 26.7017 133.973 27.0209 132.353 27.0209Z" fill="#FCFCFC"/>
<path d="M108.893 26.6105V1.12769H112.018V13.3047H112.268L120.962 1.12769H124.865L116.532 12.5864L124.907 26.6105H121.143L114.448 15.2373L112.018 18.7091V26.6105H108.893Z" fill="#FCFCFC"/>
<path d="M98.9475 26.9525C97.1696 26.9525 95.577 26.4281 94.1695 25.3791C92.7621 24.3301 91.6556 22.8308 90.85 20.8811C90.0444 18.92 89.6416 16.5884 89.6416 13.8862C89.6416 11.1612 90.0444 8.82384 90.85 6.87415C91.6648 4.91306 92.7713 3.40803 94.1695 2.35908C95.577 1.31012 97.1696 0.785645 98.9475 0.785645C100.04 0.785645 101.063 0.979473 102.017 1.36713C102.98 1.75479 103.841 2.31917 104.6 3.06028C105.36 3.80139 105.985 4.70783 106.476 5.77959C106.976 6.85135 107.309 8.06563 107.476 9.42243H104.337C104.216 8.59011 103.989 7.8604 103.656 7.2333C103.332 6.59481 102.929 6.05893 102.448 5.62566C101.975 5.181 101.443 4.85035 100.85 4.63372C100.267 4.40568 99.6466 4.29167 98.9891 4.29167C97.8039 4.29167 96.7344 4.66222 95.7807 5.40333C94.8362 6.13304 94.0908 7.2162 93.5445 8.65281C93.0075 10.078 92.7389 11.8225 92.7389 13.8862C92.7389 15.9613 93.0121 17.7115 93.5584 19.1367C94.1047 20.5505 94.8501 21.6222 95.7946 22.352C96.7391 23.0817 97.7993 23.4465 98.9752 23.4465C99.6327 23.4465 100.253 23.3382 100.836 23.1216C101.42 22.9049 101.952 22.58 102.434 22.1467C102.915 21.7135 103.318 21.189 103.642 20.5733C103.975 19.9462 104.207 19.2222 104.337 18.4013H107.476C107.318 19.6669 106.999 20.8241 106.517 21.8731C106.036 22.9106 105.42 23.8114 104.67 24.5753C103.92 25.3278 103.063 25.915 102.1 26.3368C101.137 26.7473 100.086 26.9525 98.9475 26.9525Z" fill="#FCFCFC"/>
<path d="M79.445 26.9525C77.6671 26.9525 76.0745 26.4281 74.667 25.3791C73.2596 24.3301 72.1484 22.8308 71.3336 20.8811C70.5187 18.92 70.1113 16.5884 70.1113 13.8862C70.1113 11.1612 70.5187 8.82384 71.3336 6.87415C72.1484 4.91306 73.2596 3.40803 74.667 2.35908C76.0745 1.31012 77.6671 0.785645 79.445 0.785645C81.2413 0.785645 82.8386 1.31012 84.2368 2.35908C85.635 3.40803 86.7369 4.91306 87.5425 6.87415C88.3573 8.82384 88.7647 11.1612 88.7647 13.8862C88.7647 16.5998 88.3573 18.9314 87.5425 20.8811C86.7369 22.8308 85.635 24.3301 84.2368 25.3791C82.8386 26.4281 81.2413 26.9525 79.445 26.9525ZM79.445 23.4465C80.6395 23.4465 81.7043 23.0817 82.6395 22.352C83.5748 21.6222 84.3109 20.5448 84.8479 19.1196C85.3943 17.6944 85.6674 15.9499 85.6674 13.8862C85.6674 11.8111 85.3943 10.0609 84.8479 8.63571C84.3109 7.1991 83.5748 6.11594 82.6395 5.38623C81.7043 4.65652 80.6395 4.29167 79.445 4.29167C78.2598 4.29167 77.1949 4.65652 76.2504 5.38623C75.3152 6.11594 74.5744 7.1991 74.0281 8.63571C73.4818 10.0609 73.2087 11.8111 73.2087 13.8862C73.2087 15.9499 73.4818 17.6944 74.0281 19.1196C74.5744 20.5448 75.3152 21.6222 76.2504 22.352C77.1949 23.0817 78.2598 23.4465 79.445 23.4465Z" fill="#FCFCFC"/>
<path d="M57.8594 26.6105V1.12769H60.9845V23.3097H70.3598V26.6105H57.8594Z" fill="#FCFCFC"/>
<path d="M43.6204 27.0209C42.074 27.0209 40.7314 26.7245 39.5925 26.1316C38.4628 25.5273 37.5785 24.6665 36.9396 23.5491C36.3007 22.4318 35.9442 21.1035 35.8701 19.5642H39.0091C39.0739 20.4878 39.3147 21.2574 39.7314 21.8731C40.1573 22.4774 40.7082 22.9277 41.3842 23.2242C42.0601 23.5206 42.8009 23.6688 43.6065 23.6688C44.4862 23.6688 45.2732 23.4978 45.9677 23.1558C46.6622 22.8137 47.2038 22.3348 47.5927 21.7192C47.9909 21.0921 48.19 20.3624 48.19 19.53C48.19 18.7775 48.0141 18.1618 47.6622 17.683C47.3196 17.2041 46.852 16.8107 46.2594 16.5029C45.6668 16.1836 45.0001 15.9043 44.2593 15.6649L41.8287 14.8439C40.1619 14.2967 38.8471 13.4814 37.8841 12.3983C36.9211 11.3037 36.4396 9.8728 36.4396 8.10553C36.4396 6.63471 36.759 5.35202 37.3979 4.25746C38.0461 3.1629 38.9211 2.31347 40.023 1.70918C41.1342 1.09349 42.3796 0.785645 43.7593 0.785645C45.1667 0.785645 46.4029 1.09349 47.4677 1.70918C48.5419 2.31347 49.3891 3.1458 50.0095 4.20615C50.6391 5.25511 50.9679 6.45799 50.9956 7.81479H47.9678C47.8566 6.64042 47.4122 5.72828 46.6344 5.07838C45.8658 4.42849 44.8843 4.10354 43.6898 4.10354C42.8565 4.10354 42.125 4.26886 41.4953 4.59951C40.8749 4.91876 40.3934 5.36343 40.0508 5.93351C39.7175 6.50359 39.5508 7.15919 39.5508 7.9003C39.5508 8.69842 39.7499 9.34832 40.148 9.84999C40.5555 10.3517 41.0462 10.7507 41.6203 11.0472C42.2037 11.3322 42.7639 11.5659 43.3009 11.7484L45.3149 12.4154C45.9723 12.6206 46.6483 12.8942 47.3427 13.2363C48.0372 13.5783 48.6807 14.0287 49.2734 14.5874C49.8752 15.1347 50.3567 15.8188 50.7179 16.6397C51.0882 17.4492 51.2734 18.4298 51.2734 19.5813C51.2734 21.0066 50.9725 22.2835 50.3706 23.4123C49.7687 24.5297 48.8983 25.4133 47.7594 26.0632C46.6205 26.7017 45.2408 27.0209 43.6204 27.0209Z" fill="#FCFCFC"/>
<path d="M25.8278 26.9525C24.05 26.9525 22.4573 26.4281 21.0499 25.3791C19.6424 24.3301 18.5312 22.8308 17.7164 20.8811C16.9016 18.92 16.4941 16.5884 16.4941 13.8862C16.4941 11.1612 16.9016 8.82384 17.7164 6.87415C18.5312 4.91306 19.6424 3.40803 21.0499 2.35908C22.4573 1.31012 24.05 0.785645 25.8278 0.785645C27.6242 0.785645 29.2214 1.31012 30.6196 2.35908C32.0178 3.40803 33.1197 4.91306 33.9253 6.87415C34.7401 8.82384 35.1476 11.1612 35.1476 13.8862C35.1476 16.5998 34.7401 18.9314 33.9253 20.8811C33.1197 22.8308 32.0178 24.3301 30.6196 25.3791C29.2214 26.4281 27.6242 26.9525 25.8278 26.9525ZM25.8278 23.4465C27.0223 23.4465 28.0871 23.0817 29.0223 22.352C29.9576 21.6222 30.6937 20.5448 31.2308 19.1196C31.7771 17.6944 32.0502 15.9499 32.0502 13.8862C32.0502 11.8111 31.7771 10.0609 31.2308 8.63571C30.6937 7.1991 29.9576 6.11594 29.0223 5.38623C28.0871 4.65652 27.0223 4.29167 25.8278 4.29167C24.6426 4.29167 23.5777 4.65652 22.6332 5.38623C21.698 6.11594 20.9573 7.1991 20.4109 8.63571C19.8646 10.0609 19.5915 11.8111 19.5915 13.8862C19.5915 15.9499 19.8646 17.6944 20.4109 19.1196C20.9573 20.5448 21.698 21.6222 22.6332 22.352C23.5777 23.0817 24.6426 23.4465 25.8278 23.4465Z" fill="#FCFCFC"/>
<path d="M8.11745 27.0209C6.5711 27.0209 5.22847 26.7245 4.08954 26.1316C2.95987 25.5273 2.07558 24.6665 1.43667 23.5491C0.797758 22.4318 0.441264 21.1035 0.367188 19.5642H3.50618C3.571 20.4878 3.81175 21.2574 4.22843 21.8731C4.65437 22.4774 5.20532 22.9277 5.88127 23.2242C6.55721 23.5206 7.29798 23.6688 8.10356 23.6688C8.98322 23.6688 9.77029 23.4978 10.4648 23.1558C11.1592 22.8137 11.7009 22.3348 12.0898 21.7192C12.488 21.0921 12.6871 20.3624 12.6871 19.53C12.6871 18.7775 12.5111 18.1618 12.1593 17.683C11.8167 17.2041 11.349 16.8107 10.7564 16.5029C10.1638 16.1836 9.49713 15.9043 8.75636 15.6649L6.32573 14.8439C4.659 14.2967 3.34414 13.4814 2.38115 12.3983C1.41815 11.3037 0.936651 9.8728 0.936651 8.10553C0.936651 6.63471 1.25611 5.35202 1.89502 4.25746C2.54319 3.1629 3.41822 2.31347 4.52011 1.70918C5.63126 1.09349 6.87667 0.785645 8.25635 0.785645C9.6638 0.785645 10.9 1.09349 11.9648 1.70918C13.0389 2.31347 13.8862 3.1458 14.5066 4.20615C15.1362 5.25511 15.4649 6.45799 15.4927 7.81479H12.4648C12.3537 6.64042 11.9093 5.72828 11.1314 5.07838C10.3629 4.42849 9.38139 4.10354 8.1869 4.10354C7.35354 4.10354 6.62203 4.26886 5.99238 4.59951C5.37199 4.91876 4.89049 5.36343 4.54789 5.93351C4.21454 6.50359 4.04787 7.15919 4.04787 7.9003C4.04787 8.69842 4.24695 9.34832 4.64511 9.84999C5.05253 10.3517 5.54329 10.7507 6.11738 11.0472C6.70074 11.3322 7.26094 11.5659 7.798 11.7484L9.81196 12.4154C10.4694 12.6206 11.1453 12.8942 11.8398 13.2363C12.5343 13.5783 13.1778 14.0287 13.7704 14.5874C14.3723 15.1347 14.8538 15.8188 15.2149 16.6397C15.5853 17.4492 15.7705 18.4298 15.7705 19.5813C15.7705 21.0066 15.4696 22.2835 14.8677 23.4123C14.2658 24.5297 13.3954 25.4133 12.2565 26.0632C11.1176 26.7017 9.73788 27.0209 8.11745 27.0209Z" fill="#FCFCFC"/>
</svg>
