<svg width="40" height="40" viewBox="0 0 40 40" fill="none" xmlns="http://www.w3.org/2000/svg">
<path d="M11.4004 15.1999H14.6004M29.0004 13.6V7.19999C29.0004 6.3513 29.3375 5.53737 29.9376 4.93725C30.5378 4.33714 31.3517 4 32.2004 4" stroke="#000C16" stroke-width="1.5" stroke-linecap="round" stroke-linejoin="round"/>
<path d="M21 29.5997V35.9997M29 9.0542C27.456 8.7998 25.416 8.7998 22.4 8.7998H18C13.3312 8.7998 10.9968 8.7998 9.2288 9.7438C7.83307 10.4897 6.68993 11.6329 5.944 13.0286C5 14.7966 5 17.131 5 21.7997C5 24.6013 5 26.0029 5.5664 27.0637C6.0145 27.9001 6.70045 28.585 7.5376 29.0317C8.5984 29.5997 9.9984 29.5997 12.8 29.5997H27.6C30.4016 29.5997 31.8032 29.5997 32.864 29.0333C33.7004 28.5852 34.3853 27.8993 34.832 27.0621C35.4 26.0013 35.4 24.6013 35.4 21.7997C35.4 17.131 35.4 14.7966 34.456 13.0286C34.179 12.5104 33.8458 12.0242 33.4624 11.579" stroke="#000C16" stroke-width="1.5" stroke-linecap="round"/>
<path d="M20.9991 29.5996V18.3996C20.9991 16.9132 20.9991 16.1692 20.9015 15.5484C20.6372 13.8799 19.8515 12.338 18.6569 11.1434C17.4624 9.94893 15.9204 9.1632 14.2519 8.89886C14.1139 8.87725 13.9751 8.86018 13.8359 8.84766" stroke="#000C16" stroke-width="1.5" stroke-linecap="round"/>
</svg>
