<svg width="24" height="24" viewBox="0 0 24 24" fill="none" xmlns="http://www.w3.org/2000/svg">
<path d="M7 14L8.995 11.605C9.632 10.842 9.95 10.46 10.333 10.46C10.716 10.46 11.035 10.842 11.671 11.605L12.329 12.395C12.965 13.158 13.283 13.54 13.667 13.54C14.05 13.54 14.368 13.158 15.005 12.395L17 10" stroke="#000C16" stroke-linecap="round" stroke-linejoin="round"/>
<path d="M12 22C17.523 22 22 17.523 22 12C22 6.477 17.523 2 12 2C6.477 2 2 6.477 2 12C2 13.379 2.28 14.693 2.784 15.888C3.063 16.548 3.202 16.878 3.22 17.128C3.237 17.378 3.163 17.652 3.016 18.201L2 22L5.799 20.984C6.348 20.837 6.622 20.764 6.872 20.78C7.122 20.798 7.452 20.937 8.112 21.216C9.34266 21.7343 10.6647 22.0009 12 22Z" stroke="#000C16" stroke-linejoin="round"/>
</svg>
