<svg width="24" height="24" viewBox="0 0 24 24" fill="none" xmlns="http://www.w3.org/2000/svg">
<path d="M7.36842 2H5.68421C5.23753 2 4.80914 2.1756 4.49329 2.48816C4.17744 2.80072 4 3.22464 4 3.66667V20.3333C4 20.7754 4.17744 21.1993 4.49329 21.5118C4.80914 21.8244 5.23753 22 5.68421 22H7.36842C7.8151 22 8.24349 21.8244 8.55934 21.5118C8.87519 21.1993 9.05263 20.7754 9.05263 20.3333V3.66667C9.05263 3.22464 8.87519 2.80072 8.55934 2.48816C8.24349 2.1756 7.8151 2 7.36842 2ZM18.3158 2H16.6316C16.1849 2 15.7565 2.1756 15.4407 2.48816C15.1248 2.80072 14.9474 3.22464 14.9474 3.66667V20.3333C14.9474 20.7754 15.1248 21.1993 15.4407 21.5118C15.7565 21.8244 16.1849 22 16.6316 22H18.3158C18.7625 22 19.1909 21.8244 19.5067 21.5118C19.8226 21.1993 20 20.7754 20 20.3333V3.66667C20 3.22464 19.8226 2.80072 19.5067 2.48816C19.1909 2.1756 18.7625 2 18.3158 2Z" stroke="#000C16" stroke-linecap="round" stroke-linejoin="round"/>
</svg>
