<svg width="100" height="100" viewBox="0 0 100 100" fill="none" xmlns="http://www.w3.org/2000/svg">
<path d="M87 48.7299V30.073C87 12.4234 82.9082 8 66.4541 8H33.5459C17.0918 8 13 12.4234 13 30.073V79.3868C13 91.0365 19.3553 93.7957 27.06 85.4745L27.1035 85.4307C30.6729 81.6204 36.1141 81.927 39.2047 86.0876L43.6012 92" stroke="#000C16" stroke-width="2.5" stroke-linecap="round" stroke-linejoin="round"/>
<path d="M33.332 29.167H66.6654" stroke="#000C16" stroke-width="2.5" stroke-linecap="round" stroke-linejoin="round"/>
<path d="M37.5 45.833H62.5" stroke="#000C16" stroke-width="2.5" stroke-linecap="round" stroke-linejoin="round"/>
<path d="M75.8805 61.5428L61.1306 76.2929C60.5473 76.8762 60.0055 77.9595 59.8805 78.7512L59.0888 84.3762C58.7972 86.4179 60.2139 87.8346 62.2555 87.5429L67.8806 86.7512C68.6722 86.6262 69.7972 86.0845 70.3389 85.5012L85.0889 70.7512C87.6306 68.2096 88.8389 65.2512 85.0889 61.5012C81.3806 57.7929 78.4222 59.0011 75.8805 61.5428Z" stroke="#000C16" stroke-width="2.5" stroke-miterlimit="10" stroke-linecap="round" stroke-linejoin="round"/>
<path d="M73.748 63.668C74.998 68.168 78.4981 71.668 82.9981 72.918" stroke="#000C16" stroke-width="2.5" stroke-miterlimit="10" stroke-linecap="round" stroke-linejoin="round"/>
</svg>
