<svg width="100" height="100" viewBox="0 0 100 100" fill="none" xmlns="http://www.w3.org/2000/svg">
<path d="M87 48.7299V30.073C87 12.4234 82.9082 8 66.4541 8H33.5459C17.0918 8 13 12.4234 13 30.073V79.3868C13 91.0365 19.3553 93.7957 27.06 85.4745L27.1035 85.4307C30.6729 81.6204 36.1141 81.927 39.2047 86.0876L43.6012 92" stroke="#F6A801" stroke-width="2.5" stroke-linecap="round" stroke-linejoin="round"/>
<path d="M33.333 29.1667H66.6663" stroke="#F6A801" stroke-width="2.5" stroke-linecap="round" stroke-linejoin="round"/>
<path d="M37.5 45.8333H62.5" stroke="#F6A801" stroke-width="2.5" stroke-linecap="round" stroke-linejoin="round"/>
<path d="M75.8795 61.5428L61.1296 76.2929C60.5463 76.8762 60.0045 77.9595 59.8795 78.7512L59.0879 84.3762C58.7962 86.4179 60.2129 87.8346 62.2546 87.5429L67.8796 86.7512C68.6713 86.6262 69.7962 86.0845 70.3379 85.5012L85.0879 70.7512C87.6296 68.2096 88.8379 65.2512 85.0879 61.5012C81.3796 57.7929 78.4212 59.0011 75.8795 61.5428Z" stroke="#F6A801" stroke-width="2.5" stroke-miterlimit="10" stroke-linecap="round" stroke-linejoin="round"/>
<path d="M73.7471 63.6678C74.9971 68.1678 78.4971 71.6678 82.9971 72.9178" stroke="#F6A801" stroke-width="2.5" stroke-miterlimit="10" stroke-linecap="round" stroke-linejoin="round"/>
</svg>
