<svg width="40" height="40" viewBox="0 0 40 40" fill="none" xmlns="http://www.w3.org/2000/svg">
<path d="M8.42857 9.51724V16.1379M8.42857 20.5517V27.1724M8.42857 32.6897V36M30.5714 32.6897V36M23.9286 23.8621C22.754 23.8621 21.6276 23.397 20.7971 22.5693C19.9666 21.7416 19.5 20.6189 19.5 19.4483C19.5 18.2777 19.9666 17.155 20.7971 16.3273C21.6276 15.4995 22.754 15.0345 23.9286 15.0345C25.1031 15.0345 26.2295 15.4995 27.06 16.3273C27.8906 17.155 28.3571 18.2777 28.3571 19.4483C28.3571 20.6189 27.8906 21.7416 27.06 22.5693C26.2295 23.397 25.1031 23.8621 23.9286 23.8621ZM6.21429 4H32.7857C33.373 4 33.9362 4.23251 34.3514 4.64639C34.7667 5.06026 35 5.62159 35 6.2069V30.4828C35 31.0681 34.7667 31.6294 34.3514 32.0433C33.9362 32.4571 33.373 32.6897 32.7857 32.6897H6.21429C5.62702 32.6897 5.06381 32.4571 4.64855 32.0433C4.23329 31.6294 4 31.0681 4 30.4828V6.2069C4 5.62159 4.23329 5.06026 4.64855 4.64639C5.06381 4.23251 5.62702 4 6.21429 4Z" stroke="#000C16"/>
</svg>
