<svg width="40" height="40" viewBox="0 0 40 40" fill="none" xmlns="http://www.w3.org/2000/svg">
<path d="M26.668 33.333H13.3346C8.0013 33.333 6.66797 31.9997 6.66797 26.6663V23.9997C6.66797 18.6663 8.0013 17.333 13.3346 17.333H26.668C32.0013 17.333 33.3346 18.6663 33.3346 23.9997V26.6663C33.3346 31.9997 32.0013 33.333 26.668 33.333Z" stroke="#000C16" stroke-linecap="round" stroke-linejoin="round"/>
<path d="M12 17.3337V14.667C12 10.2537 13.3333 6.66699 20 6.66699C26 6.66699 28 9.33366 28 13.3337" stroke="#000C16" stroke-linecap="round" stroke-linejoin="round"/>
<path d="M19.9993 28.6667C21.8403 28.6667 23.3327 27.1743 23.3327 25.3333C23.3327 23.4924 21.8403 22 19.9993 22C18.1584 22 16.666 23.4924 16.666 25.3333C16.666 27.1743 18.1584 28.6667 19.9993 28.6667Z" stroke="#000C16" stroke-linecap="round" stroke-linejoin="round"/>
</svg>
