<svg width="24" height="24" viewBox="0 0 24 24" fill="none" xmlns="http://www.w3.org/2000/svg">
<path d="M17.7564 13.8265L14.6189 12.2578C14.5262 12.2118 14.423 12.1909 14.3198 12.1975C14.2165 12.204 14.1167 12.2377 14.0306 12.2951L12.4932 13.3196C11.715 12.9212 11.0817 12.288 10.6833 11.5098L11.7088 9.97353C11.7662 9.88742 11.7999 9.7877 11.8065 9.68441C11.813 9.58113 11.7922 9.47796 11.7461 9.38529L10.1773 6.24804C10.1286 6.14989 10.0533 6.06731 9.96012 6.00963C9.86692 5.95194 9.75945 5.92144 9.64983 5.92157C8.66169 5.92157 7.71401 6.31407 7.01528 7.01274C6.31656 7.7114 5.92402 8.659 5.92402 9.64706C5.92661 11.8824 6.81582 14.0254 8.39659 15.6061C9.97736 17.1867 12.1206 18.0758 14.3561 18.0784C15.3443 18.0784 16.292 17.6859 16.9907 16.9873C17.6894 16.2886 18.082 15.341 18.082 14.3529C18.082 14.2436 18.0515 14.1364 17.994 14.0434C17.9365 13.9504 17.8543 13.8753 17.7564 13.8265ZM14.3561 16.902C12.4326 16.8996 10.5884 16.1345 9.22827 14.7745C7.8681 13.4144 7.10292 11.5705 7.10059 9.64706C7.10065 9.03186 7.32321 8.43744 7.72722 7.97346C8.13123 7.50948 8.68943 7.20726 9.29882 7.12255L10.5401 9.6049L9.52139 11.1324C9.46787 11.2129 9.43503 11.3054 9.4258 11.4017C9.41656 11.498 9.43121 11.595 9.46845 11.6843C10.0094 12.9704 11.0325 13.9934 12.3187 14.5343C12.408 14.5715 12.505 14.5862 12.6013 14.577C12.6976 14.5677 12.7901 14.5349 12.8707 14.4814L14.3983 13.4627L16.8809 14.7039C16.7962 15.3133 16.4939 15.8714 16.0299 16.2754C15.5659 16.6794 14.9714 16.9019 14.3561 16.902ZM12.003 2C10.2693 1.99964 8.56528 2.44993 7.05812 3.3067C5.55097 4.16347 4.29245 5.39729 3.40603 6.88712C2.51961 8.37694 2.03575 10.0716 2.00191 11.8048C1.96806 13.538 2.38541 15.2502 3.21299 16.7735L2.07367 20.1922C1.99302 20.434 1.98131 20.6935 2.03987 20.9416C2.09843 21.1897 2.22494 21.4167 2.40522 21.5969C2.5855 21.7772 2.81242 21.9037 3.06056 21.9622C3.3087 22.0208 3.56824 22.0091 3.8101 21.9284L7.22903 20.7892C8.56737 21.5154 10.0539 21.9265 11.5752 21.991C13.0965 22.0555 14.6125 21.7719 16.0076 21.1616C17.4026 20.5513 18.6399 19.6306 19.625 18.4696C20.6101 17.3086 21.3171 15.938 21.6921 14.4623C22.067 12.9867 22.1 11.4448 21.7885 9.95447C21.4771 8.46409 20.8293 7.06451 19.8948 5.86245C18.9602 4.66039 17.7635 3.68758 16.3958 3.01821C15.0282 2.34885 13.5257 2.00059 12.003 2ZM12.003 20.8235C10.4518 20.8239 8.92793 20.4154 7.58495 19.6392C7.4954 19.5878 7.39406 19.5604 7.2908 19.5598C7.2275 19.5602 7.16465 19.5704 7.10451 19.5902L3.4385 20.8118C3.40395 20.8233 3.36687 20.825 3.33142 20.8166C3.29598 20.8082 3.26356 20.7902 3.2378 20.7644C3.21205 20.7387 3.19398 20.7062 3.18561 20.6708C3.17725 20.6353 3.17892 20.5983 3.19044 20.5637L4.41212 16.902C4.43855 16.8228 4.44785 16.739 4.4394 16.656C4.43094 16.573 4.40493 16.4928 4.36309 16.4206C3.38973 14.7393 2.99848 12.7838 3.25004 10.8575C3.50161 8.93118 4.38193 7.14173 5.75442 5.76675C7.12691 4.39177 8.91486 3.50813 10.8409 3.25293C12.7669 2.99774 14.7233 3.38524 16.4065 4.35533C18.0898 5.32541 19.4059 6.82385 20.1505 8.61817C20.8951 10.4125 21.0268 12.4024 20.5249 14.2791C20.0231 16.1559 18.9159 17.8146 17.375 18.9978C15.8342 20.1811 13.9458 20.8229 12.003 20.8235Z" fill="#000C16"/>
</svg>
